# xmcd
#
# Track frame offsets:
#	150
#	15352
#	35037
#	57725
#	88762
#	107100
#	123010
#	138907
#	156010
#
# Disc length: 2434 seconds
#
# Revision: 0
# Processed by: cddbd v1.5.1PL2 Copyright (c) Steve Scherf et al.
# Submitted via: audiograbber 1.80
#
DISCID=70098009
DTITLE=Renee Geyer Band - Ready To Deal
DYEAR=1975
DGENRE=Soul
TTITLE0=Sweet Love
TTITLE1=If Loving You Is Wrong
TTITLE2=Spilt Milk
TTITLE3=Whoop
TTITLE4=Heading In The Right Direction
TTITLE5=Two Sides
TTITLE6=Ready To Deal
TTITLE7=Loves Got A Hold
TTITLE8=I Really Love You
EXTD=
EXTT0=
EXTT1=
EXTT2=
EXTT3=
EXTT4=
EXTT5=
EXTT6=
EXTT7=
EXTT8=
PLAYORDER=
